<svg xmlns="http://www.w3.org/2000/svg" width="800" height="800" viewBox="0 0 800 800" fill="none">
  <defs>
    <linearGradient id="bg" x1="0" y1="0" x2="1" y2="1">
      <stop offset="0%" stop-color="#FACC15"/>
      <stop offset="100%" stop-color="#84CC16"/>
    </linearGradient>
    <linearGradient id="lemon" x1="0" y1="0" x2="1" y2="1">
      <stop offset="0%" stop-color="#FEF08A"/>
      <stop offset="100%" stop-color="#FACC15"/>
    </linearGradient>
  </defs>
  <rect width="800" height="800" rx="120" fill="url(#bg)"/>
  <!-- Lemon body (pointed tips, no text) -->
  <path d="M190 440 C215 395 280 300 400 300 C520 300 585 395 610 440 C585 485 520 580 400 580 C280 580 215 485 190 440 Z" fill="url(#lemon)" stroke="#EAB308" stroke-width="6"/>
  <!-- Leaf -->
  <path d="M595 352 Q662 298 706 314 Q660 364 595 352 Z" fill="#FFFFFF" opacity="0.92"/>
  <path d="M600 352 Q652 330 702 316" stroke="#FFFFFF" stroke-width="8" stroke-linecap="round" fill="none" opacity="0.85"/>
  <!-- Highlight -->
  <ellipse cx="350" cy="378" rx="78" ry="42" fill="#FFFFFF" opacity="0.45"/>
  <!-- Texture pores -->
  <circle cx="345" cy="470" r="10" fill="#FFFFFF" opacity="0.4"/>
  <circle cx="445" cy="505" r="10" fill="#FFFFFF" opacity="0.4"/>
  <circle cx="400" cy="545" r="10" fill="#FFFFFF" opacity="0.4"/>
</svg>
